<?xml version="1.0" encoding="UTF-8" standalone="no"?>
<svg
   xmlns:dc="http://purl.org/dc/elements/1.1/"
   xmlns:cc="http://creativecommons.org/ns#"
   xmlns:rdf="http://www.w3.org/1999/02/22-rdf-syntax-ns#"
   xmlns:svg="http://www.w3.org/2000/svg"
   xmlns="http://www.w3.org/2000/svg"
   xmlns:sodipodi="http://sodipodi.sourceforge.net/DTD/sodipodi-0.dtd"
   xmlns:inkscape="http://www.inkscape.org/namespaces/inkscape"
   width="115.99497mm"
   height="113.85681mm"
   viewBox="0 0 115.99497 113.85681"
   version="1.1"
   id="svg8"
   sodipodi:docname="mercury.png.svg"
   inkscape:version="1.0 (4035a4fb49, 2020-05-01)">
  <defs
     id="defs2" />
  <sodipodi:namedview
     id="base"
     pagecolor="#ffffff"
     bordercolor="#666666"
     borderopacity="1.0"
     inkscape:pageopacity="0.0"
     inkscape:pageshadow="2"
     inkscape:zoom="1.4"
     inkscape:cx="232.4756"
     inkscape:cy="214.54839"
     inkscape:document-units="mm"
     inkscape:current-layer="g900"
     inkscape:document-rotation="0"
     showgrid="false"
     showguides="false"
     inkscape:window-width="1600"
     inkscape:window-height="837"
     inkscape:window-x="-8"
     inkscape:window-y="-8"
     inkscape:window-maximized="1"
     fit-margin-top="0"
     fit-margin-left="0"
     fit-margin-right="0"
     fit-margin-bottom="0">
    <sodipodi:guide
       position="84.080812,112.69386"
       orientation="0,-1"
       id="guide966" />
  </sodipodi:namedview>
  <metadata
     id="metadata5">
    <rdf:RDF>
      <cc:Work
         rdf:about="">
        <dc:format>image/svg+xml</dc:format>
        <dc:type
           rdf:resource="http://purl.org/dc/dcmitype/StillImage" />
        <dc:title></dc:title>
      </cc:Work>
    </rdf:RDF>
  </metadata>
  <g
     inkscape:label="Layer 1"
     inkscape:groupmode="layer"
     id="layer1"
     transform="translate(-72.212344,-90.173064)">
    <g
       transform="translate(45.492474,33.791276)"
       id="g900">
      <g
         transform="translate(68.766945,12.544978)"
         id="g865">
        <g
           id="g858"
           transform="translate(43.845238,9.4494048)">
          <g
             id="g848" />
        </g>
        <g
           style="fill:#008fcc;fill-opacity:0.120482"
           transform="matrix(0.90092166,0,0,0.90092166,40.146021,19.003651)"
           id="g1045">
          <g
             style="fill:#008fcc;fill-opacity:0.120482"
             id="g1043">
            <ellipse
               ry="56.928406"
               rx="57.997486"
               style="fill:#949494;fill-opacity:0.12048202;stroke:none;stroke-width:29.7438;stroke-linecap:round;stroke-linejoin:round"
               id="ellipse1041"
               cx="-27.894827"
               cy="91.315811" />
          </g>
        </g>
        <g
           id="g1051"
           transform="matrix(0.80645161,0,0,0.80645161,32.03177,22.252231)"
           style="fill:#008fcc;fill-opacity:0.120482">
          <g
             transform="matrix(1.0246815,0,0,1.0246815,7.2607579,4.4538985)"
             id="g1049"
             style="fill:#000000;fill-opacity:0.425703">
            <ellipse
               cy="91.315811"
               cx="-27.894827"
               id="ellipse1047"
               style="fill:#000000;fill-opacity:0.425703;stroke:none;stroke-width:29.7438;stroke-linecap:round;stroke-linejoin:round"
               rx="57.997486"
               ry="56.928406" />
          </g>
        </g>
      </g>
      <g
         transform="translate(-91.138908,-40.892238)"
         id="g1039">
        <circle
           style="fill:#636363;fill-opacity:1;stroke:none;stroke-width:23.6577;stroke-linecap:round;stroke-linejoin:round"
           id="path835"
           cx="174.88367"
           cy="154.55545"
           r="45.703087" />
        <g
           id="g975">
          <path
             transform="scale(0.26458333)"
             d="m 530.08789,471.42773 a 172.73608,172.73608 0 0 0 -0.0859,0.0996 172.73608,172.73608 0 0 0 -0.71679,0.83985 172.73608,172.73608 0 0 0 -0.71289,0.84375 172.73608,172.73608 0 0 0 -0.70704,0.84961 172.73608,172.73608 0 0 0 -0.70117,0.85547 172.73608,172.73608 0 0 0 -0.69726,0.85742 172.73608,172.73608 0 0 0 -0.68946,0.86328 172.73608,172.73608 0 0 0 -0.68554,0.86719 172.73608,172.73608 0 0 0 -0.67969,0.87109 172.73608,172.73608 0 0 0 -0.67383,0.87695 172.73608,172.73608 0 0 0 -0.66797,0.87891 172.73608,172.73608 0 0 0 -0.66406,0.88476 172.73608,172.73608 0 0 0 -0.65625,0.88868 172.73608,172.73608 0 0 0 -0.65039,0.89258 172.73608,172.73608 0 0 0 -0.64649,0.89648 172.73608,172.73608 0 0 0 -0.64062,0.90234 172.73608,172.73608 0 0 0 -0.63281,0.9043 172.73608,172.73608 0 0 0 -0.62891,0.91016 172.73608,172.73608 0 0 0 -0.62109,0.91211 172.73608,172.73608 0 0 0 -0.61719,0.91796 172.73608,172.73608 0 0 0 -0.61133,0.92188 172.73608,172.73608 0 0 0 -0.60351,0.92383 172.73608,172.73608 0 0 0 -0.59961,0.92968 172.73608,172.73608 0 0 0 -0.59375,0.93165 172.73608,172.73608 0 0 0 -0.58594,0.9375 172.73608,172.73608 0 0 0 -0.58203,0.93945 172.73608,172.73608 0 0 0 -0.57422,0.94531 172.73608,172.73608 0 0 0 -0.56836,0.94727 172.73608,172.73608 0 0 0 -0.5625,0.95117 172.73608,172.73608 0 0 0 -0.55664,0.95508 172.73608,172.73608 0 0 0 -0.55078,0.95703 172.73608,172.73608 0 0 0 -0.54492,0.96289 172.73608,172.73608 0 0 0 -0.53711,0.96484 172.73608,172.73608 0 0 0 -0.53321,0.96875 172.73608,172.73608 0 0 0 -0.52539,0.97266 172.73608,172.73608 0 0 0 -0.28515,0.53516 c 1.01937,0.20317 2.07149,0.3164 3.15234,0.3164 h 94.55664 c 8.82875,0 15.93555,-7.1068 15.93555,-15.93555 0,-8.82875 -7.1068,-15.9375 -15.93555,-15.9375 z"
             style="fill:#a0a0a0;fill-opacity:1;stroke:none;stroke-width:33.2488;stroke-linecap:round;stroke-linejoin:round"
             id="path970" />
          <rect
             style="fill:#bcbcbc;fill-opacity:1;stroke:none;stroke-width:5.71999;stroke-linecap:round;stroke-linejoin:round"
             id="rect871"
             width="18.560545"
             height="6.4255953"
             x="153.52942"
             y="121.14137"
             ry="3.2127976" />
        </g>
        <rect
           style="fill:#5c5c5c;fill-opacity:1;stroke:none;stroke-width:5.64273;stroke-linecap:round;stroke-linejoin:round"
           id="rect893"
           width="21.456451"
           height="5.4091892"
           x="189.74405"
           y="167.56097"
           ry="2.7045946" />
        <path
           id="path1006"
           style="fill:#4a4a4a;fill-opacity:1;stroke:none;stroke-width:33.2488;stroke-linecap:round;stroke-linejoin:round"
           d="m 778.81836,710.44336 a 172.73608,172.73608 0 0 0 0.13476,-0.125 172.73608,172.73608 0 0 0 0.80469,-0.75781 172.73608,172.73608 0 0 0 0.80078,-0.76172 172.73608,172.73608 0 0 0 0.79493,-0.76758 172.73608,172.73608 0 0 0 0.79101,-0.77344 172.73608,172.73608 0 0 0 0.78516,-0.77734 172.73608,172.73608 0 0 0 0.77929,-0.7832 172.73608,172.73608 0 0 0 0.7754,-0.78711 172.73608,172.73608 0 0 0 0.76953,-0.79297 172.73608,172.73608 0 0 0 0.76562,-0.79688 172.73608,172.73608 0 0 0 0.75977,-0.80273 172.73608,172.73608 0 0 0 0.7539,-0.80664 172.73608,172.73608 0 0 0 0.75,-0.8125 172.73608,172.73608 0 0 0 0.74414,-0.81641 172.73608,172.73608 0 0 0 0.74024,-0.82226 172.73608,172.73608 0 0 0 0.73437,-0.82618 172.73608,172.73608 0 0 0 0.72852,-0.83203 172.73608,172.73608 0 0 0 0.72265,-0.83594 172.73608,172.73608 0 0 0 0.7168,-0.83984 172.73608,172.73608 0 0 0 0.71289,-0.84375 172.73608,172.73608 0 0 0 0.70703,-0.84961 172.73608,172.73608 0 0 0 0.70118,-0.85351 172.73608,172.73608 0 0 0 0.69726,-0.85938 172.73608,172.73608 0 0 0 0.68945,-0.86328 172.73608,172.73608 0 0 0 0.68555,-0.86719 172.73608,172.73608 0 0 0 0.3711,-0.47461 c -1.84144,-6.76711 -7.94826,-11.74218 -15.31446,-11.74218 h -94.55469 c -8.82875,0 -15.9375,7.10676 -15.9375,15.93554 0,8.82875 7.10875,15.93555 15.9375,15.93555 z"
           transform="scale(0.26458333)" />
        <rect
           style="fill:#888888;fill-opacity:1;stroke:none;stroke-width:8.79709;stroke-linecap:round;stroke-linejoin:round"
           id="rect887"
           width="33.450897"
           height="8.4329987"
           x="141.3631"
           y="150.8125"
           ry="4.2164993" />
        <g
           id="g1000">
          <path
             transform="scale(0.26458333)"
             d="m 539.7168,707.16406 a 172.73608,172.73608 0 0 0 0.49804,0.48828 172.73608,172.73608 0 0 0 0.79102,0.77149 172.73608,172.73608 0 0 0 0.79883,0.76367 172.73608,172.73608 0 0 0 0.80273,0.75977 172.73608,172.73608 0 0 0 0.80664,0.75585 172.73608,172.73608 0 0 0 0.8125,0.75 172.73608,172.73608 0 0 0 0.81641,0.74415 172.73608,172.73608 0 0 0 0.82226,0.73828 172.73608,172.73608 0 0 0 0.82618,0.73437 172.73608,172.73608 0 0 0 0.83007,0.72852 172.73608,172.73608 0 0 0 0.83594,0.72265 172.73608,172.73608 0 0 0 0.83985,0.71875 172.73608,172.73608 0 0 0 0.8457,0.71289 172.73608,172.73608 0 0 0 0.84961,0.70704 172.73608,172.73608 0 0 0 0.85351,0.70117 172.73608,172.73608 0 0 0 0.85938,0.69531 172.73608,172.73608 0 0 0 0.86133,0.69141 172.73608,172.73608 0 0 0 0.63476,0.50195 h 70.125 c 6.76041,0 12.20117,-5.44272 12.20117,-12.20313 0,-6.7604 -5.44076,-12.20312 -12.20117,-12.20312 h -72.40429 c -6.58895,0 -11.83904,5.19945 -12.10547,11.7207 z"
             style="fill:#848484;fill-opacity:1;stroke:none;stroke-width:25.4595;stroke-linecap:round;stroke-linejoin:round"
             id="path995" />
          <path
             transform="scale(0.26458333)"
             d="m 516.73438,679.17969 a 172.73608,172.73608 0 0 0 0.27734,0.42187 172.73608,172.73608 0 0 0 0.61328,0.91992 172.73608,172.73608 0 0 0 0.62109,0.91407 172.73608,172.73608 0 0 0 0.625,0.91211 172.73608,172.73608 0 0 0 0.63086,0.90625 172.73608,172.73608 0 0 0 0.63672,0.90429 172.73608,172.73608 0 0 0 0.64258,0.89844 172.73608,172.73608 0 0 0 0.64844,0.89453 172.73608,172.73608 0 0 0 0.65429,0.89063 172.73608,172.73608 0 0 0 0.66016,0.88672 172.73608,172.73608 0 0 0 0.66602,0.88281 172.73608,172.73608 0 0 0 0.66992,0.87695 172.73608,172.73608 0 0 0 0.67773,0.875 172.73608,172.73608 0 0 0 0.68164,0.86914 172.73608,172.73608 0 0 0 0.68946,0.86524 172.73608,172.73608 0 0 0 0.69336,0.85937 172.73608,172.73608 0 0 0 0.69726,0.85742 172.73608,172.73608 0 0 0 0.70508,0.85157 172.73608,172.73608 0 0 0 0.71094,0.84765 172.73608,172.73608 0 0 0 0.71484,0.8418 172.73608,172.73608 0 0 0 0.7207,0.83789 172.73608,172.73608 0 0 0 0.72461,0.83398 172.73608,172.73608 0 0 0 0.73242,0.82813 172.73608,172.73608 0 0 0 0.73633,0.82422 172.73608,172.73608 0 0 0 0.74219,0.81836 172.73608,172.73608 0 0 0 0.74609,0.81445 172.73608,172.73608 0 0 0 0.75196,0.81055 172.73608,172.73608 0 0 0 0.55078,0.58398 h 58.15625 c 6.7604,0 12.20312,-5.44272 12.20312,-12.20312 0,-6.76041 -5.44272,-12.20313 -12.20312,-12.20313 h -72.4043 c -1.55337,0 -3.00887,0.35426 -4.37304,0.87891 z"
             style="fill:#848484;fill-opacity:1;stroke:none;stroke-width:25.4595;stroke-linecap:round;stroke-linejoin:round"
             id="path989" />
        </g>
        <rect
           ry="3.4863939"
           y="168.71466"
           x="145.60904"
           height="6.9727879"
           width="15.610419"
           id="rect889"
           style="fill:#888888;fill-opacity:1;stroke:none;stroke-width:5.46454;stroke-linecap:round;stroke-linejoin:round" />
        <rect
           style="fill:#747474;fill-opacity:1;stroke:none;stroke-width:4.85414;stroke-linecap:round;stroke-linejoin:round"
           id="rect891"
           width="18.45784"
           height="4.6532369"
           x="183.12947"
           y="145.8988"
           ry="2.3266184" />
        <path
           id="path917"
           style="fill:#494949;fill-opacity:1;stroke:none;stroke-width:52.5094;stroke-linecap:round;stroke-linejoin:round"
           d="m 829.56055,621.78906 a 172.73608,172.73608 0 0 0 0.082,-0.36133 172.73608,172.73608 0 0 0 0.23437,-1.08007 172.73608,172.73608 0 0 0 0.22852,-1.08204 172.73608,172.73608 0 0 0 0.22265,-1.08203 172.73608,172.73608 0 0 0 0.2129,-1.08398 172.73608,172.73608 0 0 0 0.20703,-1.08594 172.73608,172.73608 0 0 0 0.20117,-1.08789 172.73608,172.73608 0 0 0 0.19336,-1.08789 172.73608,172.73608 0 0 0 0.1875,-1.08984 172.73608,172.73608 0 0 0 0.17773,-1.08985 172.73608,172.73608 0 0 0 0.17383,-1.09179 172.73608,172.73608 0 0 0 0.16602,-1.0918 172.73608,172.73608 0 0 0 0.1582,-1.09375 172.73608,172.73608 0 0 0 0.15039,-1.0957 172.73608,172.73608 0 0 0 0.14453,-1.09571 172.73608,172.73608 0 0 0 0.13867,-1.0957 172.73608,172.73608 0 0 0 0.13086,-1.09766 172.73608,172.73608 0 0 0 0.12305,-1.09765 172.73608,172.73608 0 0 0 0.11523,-1.09961 172.73608,172.73608 0 0 0 0.10938,-1.09961 172.73608,172.73608 0 0 0 0.10351,-1.10156 172.73608,172.73608 0 0 0 0.0957,-1.09961 172.73608,172.73608 0 0 0 0.0879,-1.10157 172.73608,172.73608 0 0 0 0.0801,-1.10351 172.73608,172.73608 0 0 0 0.0742,-1.10156 172.73608,172.73608 0 0 0 0.0684,-1.10352 172.73608,172.73608 0 0 0 0.0606,-1.10351 172.73608,172.73608 0 0 0 0.0527,-1.10352 172.73608,172.73608 0 0 0 0.0449,-1.10547 172.73608,172.73608 0 0 0 0.0391,-1.10351 172.73608,172.73608 0 0 0 0.0312,-1.10547 172.73608,172.73608 0 0 0 0.0254,-1.10352 172.73608,172.73608 0 0 0 0.0176,-1.10547 172.73608,172.73608 0 0 0 0.0117,-1.10547 172.73608,172.73608 0 0 0 0.002,-1.10547 172.73608,172.73608 0 0 0 0,-0.5625 172.73608,172.73608 0 0 0 -0.008,-1.10546 172.73608,172.73608 0 0 0 -0.0137,-1.10547 172.73608,172.73608 0 0 0 -0.0215,-1.10547 172.73608,172.73608 0 0 0 -0.0273,-1.10547 172.73608,172.73608 0 0 0 -0.0371,-1.10352 172.73608,172.73608 0 0 0 -0.041,-1.10547 172.73608,172.73608 0 0 0 -0.0508,-1.10351 172.73608,172.73608 0 0 0 -0.0566,-1.10352 172.73608,172.73608 0 0 0 -0.0625,-1.10351 172.73608,172.73608 0 0 0 -0.0703,-1.10352 172.73608,172.73608 0 0 0 -0.0762,-1.08594 h -99.88867 c -13.9431,10e-6 -25.16993,11.22488 -25.16993,25.16797 0,13.94313 11.22683,25.16797 25.16993,25.16797 z"
           transform="scale(0.26458333)" />
        <path
           id="path981"
           style="fill:#b7b7b7;fill-opacity:1;stroke:none;stroke-width:29.78;stroke-linecap:round;stroke-linejoin:round"
           d="m 496.71289,530.71484 a 172.73608,172.73608 0 0 0 -0.0527,0.16016 172.73608,172.73608 0 0 0 -0.33594,1.05273 172.73608,172.73608 0 0 0 -0.33203,1.05469 172.73608,172.73608 0 0 0 -0.32422,1.05664 172.73608,172.73608 0 0 0 -0.31641,1.0586 172.73608,172.73608 0 0 0 -0.31054,1.06054 172.73608,172.73608 0 0 0 -0.30274,1.0625 172.73608,172.73608 0 0 0 -0.29687,1.06446 172.73608,172.73608 0 0 0 -0.29102,1.0664 172.73608,172.73608 0 0 0 -0.2832,1.06836 172.73608,172.73608 0 0 0 -0.27539,1.07031 172.73608,172.73608 0 0 0 -0.26953,1.07227 172.73608,172.73608 0 0 0 -0.26368,1.07227 172.73608,172.73608 0 0 0 -0.25586,1.07617 172.73608,172.73608 0 0 0 -0.24804,1.07617 172.73608,172.73608 0 0 0 -0.24219,1.07812 172.73608,172.73608 0 0 0 -0.23438,1.08008 172.73608,172.73608 0 0 0 -0.22851,1.08203 172.73608,172.73608 0 0 0 -0.2207,1.08204 172.73608,172.73608 0 0 0 -0.21485,1.08398 172.73608,172.73608 0 0 0 -0.20703,1.08594 172.73608,172.73608 0 0 0 -0.20117,1.08789 172.73608,172.73608 0 0 0 -0.19336,1.08789 172.73608,172.73608 0 0 0 -0.18555,1.08984 172.73608,172.73608 0 0 0 -0.17968,1.08985 172.73608,172.73608 0 0 0 -0.17383,1.09179 172.73608,172.73608 0 0 0 -0.16406,1.0918 172.73608,172.73608 0 0 0 -0.0645,0.44336 h 83.62305 c 7.90764,0 14.27539,-6.3658 14.27539,-14.27344 0,-7.90764 -6.36775,-14.27344 -14.27539,-14.27344 z"
           transform="scale(0.26458333)" />
        <g
           id="g960">
          <path
             id="rect895"
             style="fill:#484848;fill-opacity:1;stroke:none;stroke-width:7.87928;stroke-linecap:round;stroke-linejoin:round"
             d="m 175.86655,127.56696 h 22.40775 c 2.09223,0 3.77658,1.68436 3.77658,3.77659 0,2.09223 -1.68435,3.77658 -3.77658,3.77658 h -22.40775 c -2.09223,0 -3.77658,-1.68435 -3.77658,-3.77658 0,-2.09223 1.68435,-3.77659 3.77658,-3.77659 z" />
          <path
             transform="scale(0.26458333)"
             d="m 808.06055,493.57227 a 172.73608,172.73608 0 0 0 -0.13867,-0.22657 172.73608,172.73608 0 0 0 -0.58399,-0.93945 172.73608,172.73608 0 0 0 -0.58984,-0.93359 172.73608,172.73608 0 0 0 -0.59571,-0.93164 172.73608,172.73608 0 0 0 -0.60156,-0.92579 172.73608,172.73608 0 0 0 -0.60742,-0.92382 172.73608,172.73608 0 0 0 -0.61328,-0.91993 172.73608,172.73608 0 0 0 -0.6211,-0.91406 172.73608,172.73608 0 0 0 -0.625,-0.91211 172.73608,172.73608 0 0 0 -0.63086,-0.90625 172.73608,172.73608 0 0 0 -0.63671,-0.90429 172.73608,172.73608 0 0 0 -0.64258,-0.89844 172.73608,172.73608 0 0 0 -0.64844,-0.89453 172.73608,172.73608 0 0 0 -0.6543,-0.89063 172.73608,172.73608 0 0 0 -0.66015,-0.88672 172.73608,172.73608 0 0 0 -0.66602,-0.88281 172.73608,172.73608 0 0 0 -0.66992,-0.87695 172.73608,172.73608 0 0 0 -0.67773,-0.875 172.73608,172.73608 0 0 0 -0.68165,-0.86914 172.73608,172.73608 0 0 0 -0.68945,-0.86524 172.73608,172.73608 0 0 0 -0.69336,-0.85937 172.73608,172.73608 0 0 0 -0.69726,-0.85742 172.73608,172.73608 0 0 0 -0.70508,-0.85157 172.73608,172.73608 0 0 0 -0.70899,-0.8457 172.73608,172.73608 0 0 0 -0.71679,-0.84375 172.73608,172.73608 0 0 0 -0.72071,-0.83789 172.73608,172.73608 0 0 0 -0.7246,-0.83203 172.73608,172.73608 0 0 0 -0.73243,-0.83008 172.73608,172.73608 0 0 0 -0.73633,-0.82422 172.73608,172.73608 0 0 0 -0.74218,-0.81836 172.73608,172.73608 0 0 0 -0.7461,-0.81445 172.73608,172.73608 0 0 0 -0.75195,-0.81055 172.73608,172.73608 0 0 0 -0.75781,-0.80469 172.73608,172.73608 0 0 0 -0.32617,-0.34179 h -60.66016 c -7.90764,0 -14.27344,6.36579 -14.27344,14.27344 0,7.90764 6.3658,14.27539 14.27344,14.27539 z"
             style="fill:#5c5c5c;fill-opacity:1;stroke:none;stroke-width:29.78;stroke-linecap:round;stroke-linejoin:round"
             id="path953" />
        </g>
        <path
           id="path1018"
           style="fill:#4e4e4e;fill-opacity:0.47791204;stroke:none;stroke-width:89.4149;stroke-linecap:round;stroke-linejoin:round"
           d="m 660.97852,411.41016 a 172.73608,172.73608 0 0 0 -38.04883,4.24218 172.73608,172.73608 0 0 1 0.99023,0.16211 172.73608,172.73608 0 0 1 1.08985,0.1875 172.73608,172.73608 0 0 1 1.08789,0.19336 172.73608,172.73608 0 0 1 1.08593,0.20117 172.73608,172.73608 0 0 1 1.08594,0.20704 172.73608,172.73608 0 0 1 1.08399,0.21289 172.73608,172.73608 0 0 1 1.08398,0.22265 172.73608,172.73608 0 0 1 1.08008,0.22852 172.73608,172.73608 0 0 1 1.08008,0.23437 172.73608,172.73608 0 0 1 1.07812,0.24219 172.73608,172.73608 0 0 1 1.07813,0.24805 172.73608,172.73608 0 0 1 1.07421,0.25586 172.73608,172.73608 0 0 1 1.07422,0.26367 172.73608,172.73608 0 0 1 1.07227,0.26953 172.73608,172.73608 0 0 1 1.07031,0.27539 172.73608,172.73608 0 0 1 1.06836,0.2832 172.73608,172.73608 0 0 1 1.06641,0.29102 172.73608,172.73608 0 0 1 1.06445,0.29687 172.73608,172.73608 0 0 1 1.0625,0.30274 172.73608,172.73608 0 0 1 1.06055,0.31055 172.73608,172.73608 0 0 1 1.05859,0.3164 172.73608,172.73608 0 0 1 1.05664,0.32422 172.73608,172.73608 0 0 1 1.05469,0.33203 172.73608,172.73608 0 0 1 1.05273,0.33594 172.73608,172.73608 0 0 1 1.04883,0.3457 172.73608,172.73608 0 0 1 1.04883,0.34961 172.73608,172.73608 0 0 1 1.04492,0.35742 172.73608,172.73608 0 0 1 1.04297,0.36524 172.73608,172.73608 0 0 1 1.04102,0.37109 172.73608,172.73608 0 0 1 1.03906,0.37695 172.73608,172.73608 0 0 1 1.03711,0.38477 172.73608,172.73608 0 0 1 1.0332,0.39063 172.73608,172.73608 0 0 1 1.03125,0.39843 172.73608,172.73608 0 0 1 1.0293,0.40235 172.73608,172.73608 0 0 1 1.02539,0.41211 172.73608,172.73608 0 0 1 1.02344,0.41601 172.73608,172.73608 0 0 1 1.02148,0.42383 172.73608,172.73608 0 0 1 1.01758,0.42969 172.73608,172.73608 0 0 1 1.01562,0.4375 172.73608,172.73608 0 0 1 1.01172,0.44336 172.73608,172.73608 0 0 1 1.00977,0.44922 172.73608,172.73608 0 0 1 1.00586,0.45703 172.73608,172.73608 0 0 1 1.0039,0.46289 172.73608,172.73608 0 0 1 1.00196,0.46875 172.73608,172.73608 0 0 1 0.99609,0.47461 172.73608,172.73608 0 0 1 0.99609,0.48242 172.73608,172.73608 0 0 1 0.99024,0.48828 172.73608,172.73608 0 0 1 0.98828,0.49414 172.73608,172.73608 0 0 1 0.98633,0.5 172.73608,172.73608 0 0 1 0.98242,0.50781 172.73608,172.73608 0 0 1 0.97852,0.51367 172.73608,172.73608 0 0 1 0.9746,0.51954 172.73608,172.73608 0 0 1 0.97266,0.52539 172.73608,172.73608 0 0 1 0.96875,0.5332 172.73608,172.73608 0 0 1 0.96485,0.53711 172.73608,172.73608 0 0 1 0.96289,0.54492 172.73608,172.73608 0 0 1 0.95703,0.55078 172.73608,172.73608 0 0 1 0.95508,0.55664 172.73608,172.73608 0 0 1 0.95117,0.5625 172.73608,172.73608 0 0 1 0.94726,0.56836 172.73608,172.73608 0 0 1 0.94336,0.57422 172.73608,172.73608 0 0 1 0.94141,0.58203 172.73608,172.73608 0 0 1 0.93554,0.58594 172.73608,172.73608 0 0 1 0.9336,0.59375 172.73608,172.73608 0 0 1 0.92773,0.59766 172.73608,172.73608 0 0 1 0.92578,0.60546 172.73608,172.73608 0 0 1 0.92188,0.61133 172.73608,172.73608 0 0 1 0.91601,0.61524 172.73608,172.73608 0 0 1 0.91407,0.62304 172.73608,172.73608 0 0 1 0.9082,0.62891 172.73608,172.73608 0 0 1 0.90625,0.63281 172.73608,172.73608 0 0 1 0.90039,0.64063 172.73608,172.73608 0 0 1 0.89844,0.64648 172.73608,172.73608 0 0 1 0.89258,0.65039 172.73608,172.73608 0 0 1 0.88867,0.65625 172.73608,172.73608 0 0 1 0.88476,0.66407 172.73608,172.73608 0 0 1 0.87891,0.66796 172.73608,172.73608 0 0 1 0.87695,0.67383 172.73608,172.73608 0 0 1 0.8711,0.67969 172.73608,172.73608 0 0 1 0.86718,0.68555 172.73608,172.73608 0 0 1 0.86329,0.68945 172.73608,172.73608 0 0 1 0.85742,0.69727 172.73608,172.73608 0 0 1 0.85351,0.70117 172.73608,172.73608 0 0 1 0.84961,0.70703 172.73608,172.73608 0 0 1 0.84571,0.71289 172.73608,172.73608 0 0 1 0.83984,0.7168 172.73608,172.73608 0 0 1 0.83594,0.72265 172.73608,172.73608 0 0 1 0.83008,0.72852 172.73608,172.73608 0 0 1 0.82812,0.73437 172.73608,172.73608 0 0 1 0.82031,0.74024 172.73608,172.73608 0 0 1 0.81641,0.74414 172.73608,172.73608 0 0 1 0.8125,0.75 172.73608,172.73608 0 0 1 0.80859,0.7539 172.73608,172.73608 0 0 1 0.80274,0.75977 172.73608,172.73608 0 0 1 0.79687,0.76562 172.73608,172.73608 0 0 1 0.79297,0.76954 172.73608,172.73608 0 0 1 0.78711,0.77539 172.73608,172.73608 0 0 1 0.7832,0.77929 172.73608,172.73608 0 0 1 0.77735,0.78516 172.73608,172.73608 0 0 1 0.77343,0.79102 172.73608,172.73608 0 0 1 0.76758,0.79492 172.73608,172.73608 0 0 1 0.76172,0.80078 172.73608,172.73608 0 0 1 0.75781,0.80469 172.73608,172.73608 0 0 1 0.75196,0.80859 172.73608,172.73608 0 0 1 0.74804,0.81445 172.73608,172.73608 0 0 1 0.74024,0.82032 172.73608,172.73608 0 0 1 0.73633,0.82421 172.73608,172.73608 0 0 1 0.73242,0.82813 172.73608,172.73608 0 0 1 0.72656,0.83398 172.73608,172.73608 0 0 1 0.71875,0.83789 172.73608,172.73608 0 0 1 0.7168,0.8418 172.73608,172.73608 0 0 1 0.70898,0.84766 172.73608,172.73608 0 0 1 0.70508,0.85156 172.73608,172.73608 0 0 1 0.69922,0.85547 172.73608,172.73608 0 0 1 0.69336,0.86133 172.73608,172.73608 0 0 1 0.6875,0.86523 172.73608,172.73608 0 0 1 0.68164,0.86914 172.73608,172.73608 0 0 1 0.67773,0.87305 172.73608,172.73608 0 0 1 0.66993,0.8789 172.73608,172.73608 0 0 1 0.66601,0.88086 172.73608,172.73608 0 0 1 0.66016,0.88672 172.73608,172.73608 0 0 1 0.65429,0.89063 172.73608,172.73608 0 0 1 0.64844,0.89453 172.73608,172.73608 0 0 1 0.64258,0.90039 172.73608,172.73608 0 0 1 0.63672,0.90234 172.73608,172.73608 0 0 1 0.63086,0.90821 172.73608,172.73608 0 0 1 0.62695,0.91015 172.73608,172.73608 0 0 1 0.61914,0.91602 172.73608,172.73608 0 0 1 0.61328,0.91797 172.73608,172.73608 0 0 1 0.60742,0.92383 172.73608,172.73608 0 0 1 0.60157,0.92773 172.73608,172.73608 0 0 1 0.5957,0.92969 172.73608,172.73608 0 0 1 0.5918,0.93554 172.73608,172.73608 0 0 1 0.58398,0.9375 172.73608,172.73608 0 0 1 0.57617,0.94141 172.73608,172.73608 0 0 1 0.57227,0.94727 172.73608,172.73608 0 0 1 0.56641,0.94921 172.73608,172.73608 0 0 1 0.56054,0.95313 172.73608,172.73608 0 0 1 0.55274,0.95508 172.73608,172.73608 0 0 1 0.54687,0.96094 172.73608,172.73608 0 0 1 0.54297,0.96289 172.73608,172.73608 0 0 1 0.53516,0.96679 172.73608,172.73608 0 0 1 0.52734,0.97071 172.73608,172.73608 0 0 1 0.52344,0.97461 172.73608,172.73608 0 0 1 0.51758,0.97656 172.73608,172.73608 0 0 1 0.50976,0.98047 172.73608,172.73608 0 0 1 0.50391,0.98242 172.73608,172.73608 0 0 1 0.49805,0.98828 172.73608,172.73608 0 0 1 0.49023,0.98828 172.73608,172.73608 0 0 1 0.48633,0.99414 172.73608,172.73608 0 0 1 0.47851,0.9961 172.73608,172.73608 0 0 1 0.47071,0.99804 172.73608,172.73608 0 0 1 0.46679,1.00391 172.73608,172.73608 0 0 1 0.45899,1.00391 172.73608,172.73608 0 0 1 0.45312,1.00781 172.73608,172.73608 0 0 1 0.44727,1.01172 172.73608,172.73608 0 0 1 0.43945,1.01367 172.73608,172.73608 0 0 1 0.4336,1.01562 172.73608,172.73608 0 0 1 0.42773,1.01953 172.73608,172.73608 0 0 1 0.41992,1.02344 172.73608,172.73608 0 0 1 0.41406,1.02344 172.73608,172.73608 0 0 1 0.40821,1.02734 172.73608,172.73608 0 0 1 0.40039,1.03125 172.73608,172.73608 0 0 1 0.39453,1.03125 172.73608,172.73608 0 0 1 0.38672,1.03516 172.73608,172.73608 0 0 1 0.38086,1.03711 172.73608,172.73608 0 0 1 0.375,1.04101 172.73608,172.73608 0 0 1 0.36718,1.04102 172.73608,172.73608 0 0 1 0.36133,1.04492 172.73608,172.73608 0 0 1 0.35352,1.04688 172.73608,172.73608 0 0 1 0.34765,1.04883 172.73608,172.73608 0 0 1 0.3418,1.05273 172.73608,172.73608 0 0 1 0.33399,1.05273 172.73608,172.73608 0 0 1 0.32812,1.05469 172.73608,172.73608 0 0 1 0.32031,1.05859 172.73608,172.73608 0 0 1 0.31446,1.0586 172.73608,172.73608 0 0 1 0.30664,1.0625 172.73608,172.73608 0 0 1 0.29882,1.06445 172.73608,172.73608 0 0 1 0.29493,1.06445 172.73608,172.73608 0 0 1 0.28711,1.06836 172.73608,172.73608 0 0 1 0.27929,1.06836 172.73608,172.73608 0 0 1 0.27344,1.07032 172.73608,172.73608 0 0 1 0.26563,1.07422 172.73608,172.73608 0 0 1 0.25976,1.07421 172.73608,172.73608 0 0 1 0.25195,1.07422 172.73608,172.73608 0 0 1 0.24415,1.07813 172.73608,172.73608 0 0 1 0.24023,1.08008 172.73608,172.73608 0 0 1 0.23047,1.08007 172.73608,172.73608 0 0 1 0.22461,1.08203 172.73608,172.73608 0 0 1 0.21875,1.08399 172.73608,172.73608 0 0 1 0.21094,1.08398 172.73608,172.73608 0 0 1 0.20312,1.08594 172.73608,172.73608 0 0 1 0.19727,1.08789 172.73608,172.73608 0 0 1 0.18945,1.08985 172.73608,172.73608 0 0 1 0.18359,1.08984 172.73608,172.73608 0 0 1 0.17578,1.08984 172.73608,172.73608 0 0 1 0.16993,1.0918 172.73608,172.73608 0 0 1 0.1621,1.09375 172.73608,172.73608 0 0 1 0.1543,1.09375 172.73608,172.73608 0 0 1 0.14844,1.0957 172.73608,172.73608 0 0 1 0.14062,1.09571 172.73608,172.73608 0 0 1 0.13477,1.09765 172.73608,172.73608 0 0 1 0.12695,1.09766 172.73608,172.73608 0 0 1 0.1211,1.09961 172.73608,172.73608 0 0 1 0.11132,1.09961 172.73608,172.73608 0 0 1 0.10743,1.09961 172.73608,172.73608 0 0 1 0.0976,1.09961 172.73608,172.73608 0 0 1 0.0918,1.10156 172.73608,172.73608 0 0 1 0.0859,1.10156 172.73608,172.73608 0 0 1 0.0781,1.10352 172.73608,172.73608 0 0 1 0.0703,1.10351 172.73608,172.73608 0 0 1 0.0625,1.10156 172.73608,172.73608 0 0 1 0.0566,1.10547 172.73608,172.73608 0 0 1 0.0508,1.10352 172.73608,172.73608 0 0 1 0.043,1.10351 172.73608,172.73608 0 0 1 0.0352,1.10547 172.73608,172.73608 0 0 1 0.0273,1.10547 172.73608,172.73608 0 0 1 0.0215,1.10352 172.73608,172.73608 0 0 1 0.0137,1.10547 172.73608,172.73608 0 0 1 0.008,1.10547 172.73608,172.73608 0 0 1 0.002,0.5625 172.73608,172.73608 0 0 1 -0.004,1.10546 172.73608,172.73608 0 0 1 -0.0117,1.10547 172.73608,172.73608 0 0 1 -0.0176,1.10547 172.73608,172.73608 0 0 1 -0.0234,1.10547 172.73608,172.73608 0 0 1 -0.0332,1.10352 172.73608,172.73608 0 0 1 -0.0391,1.10547 172.73608,172.73608 0 0 1 -0.0449,1.10351 172.73608,172.73608 0 0 1 -0.0527,1.10352 172.73608,172.73608 0 0 1 -0.0605,1.10351 172.73608,172.73608 0 0 1 -0.0664,1.10352 172.73608,172.73608 0 0 1 -0.0742,1.10351 172.73608,172.73608 0 0 1 -0.082,1.10157 172.73608,172.73608 0 0 1 -0.0879,1.10156 172.73608,172.73608 0 0 1 -0.0957,1.10156 172.73608,172.73608 0 0 1 -0.10156,1.09961 172.73608,172.73608 0 0 1 -0.10938,1.09961 172.73608,172.73608 0 0 1 -0.11719,1.09961 172.73608,172.73608 0 0 1 -0.12304,1.09765 172.73608,172.73608 0 0 1 -0.13086,1.09766 172.73608,172.73608 0 0 1 -0.13868,1.09766 172.73608,172.73608 0 0 1 -0.14453,1.0957 172.73608,172.73608 0 0 1 -0.15039,1.09375 172.73608,172.73608 0 0 1 -0.1582,1.09375 172.73608,172.73608 0 0 1 -0.16602,1.09375 172.73608,172.73608 0 0 1 -0.17187,1.0918 172.73608,172.73608 0 0 1 -0.17969,1.08984 172.73608,172.73608 0 0 1 -0.1875,1.08985 172.73608,172.73608 0 0 1 -0.19336,1.08789 172.73608,172.73608 0 0 1 -0.19922,1.08593 172.73608,172.73608 0 0 1 -0.20898,1.08594 172.73608,172.73608 0 0 1 -0.21289,1.08398 172.73608,172.73608 0 0 1 -0.22266,1.08399 172.73608,172.73608 0 0 1 -0.22656,1.08008 172.73608,172.73608 0 0 1 -0.23633,1.08008 172.73608,172.73608 0 0 1 -0.24219,1.07812 172.73608,172.73608 0 0 1 -0.24804,1.07813 172.73608,172.73608 0 0 1 -0.25586,1.07421 172.73608,172.73608 0 0 1 -0.26367,1.07422 172.73608,172.73608 0 0 1 -0.26758,1.07032 172.73608,172.73608 0 0 1 -0.27735,1.07031 172.73608,172.73608 0 0 1 -0.2832,1.06836 172.73608,172.73608 0 0 1 -0.28906,1.0664 172.73608,172.73608 0 0 1 -0.29688,1.06446 172.73608,172.73608 0 0 1 -0.30468,1.0625 172.73608,172.73608 0 0 1 -0.31055,1.06054 172.73608,172.73608 0 0 1 -0.31641,1.06055 172.73608,172.73608 0 0 1 -0.32422,1.05664 172.73608,172.73608 0 0 1 -0.33007,1.05274 172.73608,172.73608 0 0 1 -0.33789,1.05273 172.73608,172.73608 0 0 1 -0.34375,1.05078 172.73608,172.73608 0 0 1 -0.35157,1.04883 172.73608,172.73608 0 0 1 -0.35742,1.04492 172.73608,172.73608 0 0 1 -0.36523,1.04297 172.73608,172.73608 0 0 1 -0.3711,1.04102 172.73608,172.73608 0 0 1 -0.37695,1.03906 172.73608,172.73608 0 0 1 -0.38477,1.03711 172.73608,172.73608 0 0 1 -0.39062,1.0332 172.73608,172.73608 0 0 1 -0.39648,1.03125 172.73608,172.73608 0 0 1 -0.4043,1.0293 172.73608,172.73608 0 0 1 -0.41211,1.02539 172.73608,172.73608 0 0 1 -0.41602,1.02344 172.73608,172.73608 0 0 1 -0.42383,1.01953 172.73608,172.73608 0 0 1 -0.42968,1.01953 172.73608,172.73608 0 0 1 -0.4375,1.01367 172.73608,172.73608 0 0 1 -0.44336,1.01367 172.73608,172.73608 0 0 1 -0.44922,1.00977 172.73608,172.73608 0 0 1 -0.45703,1.00586 172.73608,172.73608 0 0 1 -0.46289,1.0039 172.73608,172.73608 0 0 1 -0.46875,1 172.73608,172.73608 0 0 1 -0.47461,0.99805 172.73608,172.73608 0 0 1 -0.48242,0.99414 172.73608,172.73608 0 0 1 -0.48828,0.99219 172.73608,172.73608 0 0 1 -0.49415,0.98828 172.73608,172.73608 0 0 1 -0.5,0.98633 172.73608,172.73608 0 0 1 -0.50781,0.98047 172.73608,172.73608 0 0 1 -0.51367,0.98046 172.73608,172.73608 0 0 1 -0.51953,0.97461 172.73608,172.73608 0 0 1 -0.52539,0.97266 172.73608,172.73608 0 0 1 -0.53125,0.96875 172.73608,172.73608 0 0 1 -0.53906,0.96484 172.73608,172.73608 0 0 1 -0.54493,0.96094 172.73608,172.73608 0 0 1 -0.55078,0.95899 172.73608,172.73608 0 0 1 -0.55664,0.95507 172.73608,172.73608 0 0 1 -0.5625,0.95118 172.73608,172.73608 0 0 1 -0.56836,0.94726 172.73608,172.73608 0 0 1 -0.57422,0.94336 172.73608,172.73608 0 0 1 -0.58203,0.94141 172.73608,172.73608 0 0 1 -0.58594,0.93554 172.73608,172.73608 0 0 1 -0.59374,0.9336 172.73608,172.73608 0 0 1 -0.59766,0.92773 172.73608,172.73608 0 0 1 -0.60547,0.92578 172.73608,172.73608 0 0 1 -0.61133,0.91993 172.73608,172.73608 0 0 1 -0.61523,0.91796 172.73608,172.73608 0 0 1 -0.62305,0.91407 172.73608,172.73608 0 0 1 -0.62891,0.9082 172.73608,172.73608 0 0 1 -0.63281,0.90625 172.73608,172.73608 0 0 1 -0.64062,0.90039 172.73608,172.73608 0 0 1 -0.64453,0.89648 172.73608,172.73608 0 0 1 -0.65235,0.89258 172.73608,172.73608 0 0 1 -0.65625,0.88868 172.73608,172.73608 0 0 1 -0.66406,0.88476 172.73608,172.73608 0 0 1 -0.66797,0.88086 172.73608,172.73608 0 0 1 -0.67383,0.875 172.73608,172.73608 0 0 1 -0.67969,0.87305 172.73608,172.73608 0 0 1 -0.68359,0.86718 172.73608,172.73608 0 0 1 -0.69141,0.86133 172.73608,172.73608 0 0 1 -0.69531,0.85938 172.73608,172.73608 0 0 1 -0.70312,0.85351 172.73608,172.73608 0 0 1 -0.70703,0.84961 172.73608,172.73608 0 0 1 -0.71094,0.84571 172.73608,172.73608 0 0 1 -0.71875,0.83984 172.73608,172.73608 0 0 1 -0.72266,0.83594 172.73608,172.73608 0 0 1 -0.72851,0.83007 172.73608,172.73608 0 0 1 -0.73438,0.82618 172.73608,172.73608 0 0 1 -0.74023,0.82226 172.73608,172.73608 0 0 1 -0.74414,0.81641 172.73608,172.73608 0 0 1 -0.74805,0.8125 172.73608,172.73608 0 0 1 -0.75586,0.80664 172.73608,172.73608 0 0 1 -0.75976,0.80273 172.73608,172.73608 0 0 1 -0.76563,0.79883 172.73608,172.73608 0 0 1 -0.76953,0.79102 172.73608,172.73608 0 0 1 -0.77539,0.78906 172.73608,172.73608 0 0 1 -0.7793,0.7832 172.73608,172.73608 0 0 1 -0.78515,0.77735 172.73608,172.73608 0 0 1 -0.79102,0.77148 172.73608,172.73608 0 0 1 -0.79492,0.76758 172.73608,172.73608 0 0 1 -0.80078,0.76367 172.73608,172.73608 0 0 1 -0.80469,0.75781 172.73608,172.73608 0 0 1 -0.80859,0.75196 172.73608,172.73608 0 0 1 -0.81446,0.74609 172.73608,172.73608 0 0 1 -0.82031,0.74219 172.73608,172.73608 0 0 1 -0.82422,0.73633 172.73608,172.73608 0 0 1 -0.82812,0.73242 172.73608,172.73608 0 0 1 -0.83204,0.72461 172.73608,172.73608 0 0 1 -0.83789,0.7207 172.73608,172.73608 0 0 1 -0.84375,0.71484 172.73608,172.73608 0 0 1 -0.84765,0.71094 172.73608,172.73608 0 0 1 -0.85156,0.70313 172.73608,172.73608 0 0 1 -0.85547,0.69922 172.73608,172.73608 0 0 1 -0.86133,0.69335 172.73608,172.73608 0 0 1 -0.86328,0.68946 172.73608,172.73608 0 0 1 -0.8711,0.68164 172.73608,172.73608 0 0 1 -0.87304,0.67578 172.73608,172.73608 0 0 1 -0.87696,0.67188 172.73608,172.73608 0 0 1 -0.88281,0.66601 172.73608,172.73608 0 0 1 -0.88672,0.66016 172.73608,172.73608 0 0 1 -0.89062,0.65429 172.73608,172.73608 0 0 1 -0.89453,0.64844 172.73608,172.73608 0 0 1 -0.9004,0.64258 172.73608,172.73608 0 0 1 -0.90234,0.63672 172.73608,172.73608 0 0 1 -0.9082,0.63086 172.73608,172.73608 0 0 1 -0.91016,0.625 172.73608,172.73608 0 0 1 -0.91601,0.62109 172.73608,172.73608 0 0 1 -0.91797,0.61328 172.73608,172.73608 0 0 1 -0.92383,0.60742 172.73608,172.73608 0 0 1 -0.92578,0.60157 172.73608,172.73608 0 0 1 -0.93164,0.5957 172.73608,172.73608 0 0 1 -0.9336,0.58984 172.73608,172.73608 0 0 1 -0.93945,0.58399 172.73608,172.73608 0 0 1 -0.94141,0.57812 172.73608,172.73608 0 0 1 -0.94531,0.57227 172.73608,172.73608 0 0 1 -0.94922,0.5664 172.73608,172.73608 0 0 1 -0.95312,0.5586 172.73608,172.73608 0 0 1 -0.95703,0.55469 172.73608,172.73608 0 0 1 -0.96094,0.54687 172.73608,172.73608 0 0 1 -0.96289,0.54102 172.73608,172.73608 0 0 1 -0.9668,0.53515 172.73608,172.73608 0 0 1 -0.9707,0.5293 172.73608,172.73608 0 0 1 -0.97266,0.52344 172.73608,172.73608 0 0 1 -0.97851,0.51562 172.73608,172.73608 0 0 1 -0.98047,0.51172 172.73608,172.73608 0 0 1 -0.98242,0.50391 172.73608,172.73608 0 0 1 -0.98633,0.49609 172.73608,172.73608 0 0 1 -0.99024,0.49219 172.73608,172.73608 0 0 1 -0.99414,0.48437 172.73608,172.73608 0 0 1 -0.99609,0.47852 172.73608,172.73608 0 0 1 -0.99805,0.47266 172.73608,172.73608 0 0 1 -1.00195,0.46679 172.73608,172.73608 0 0 1 -1.00586,0.45899 172.73608,172.73608 0 0 1 -1.00781,0.45312 172.73608,172.73608 0 0 1 -1.01172,0.44531 172.73608,172.73608 0 0 1 -1.01367,0.44141 172.73608,172.73608 0 0 1 -1.01563,0.43359 172.73608,172.73608 0 0 1 -1.01953,0.42579 172.73608,172.73608 0 0 1 -1.02344,0.42187 172.73608,172.73608 0 0 1 -1.02343,0.41406 172.73608,172.73608 0 0 1 -1.02735,0.40625 172.73608,172.73608 0 0 1 -1.03125,0.40235 172.73608,172.73608 0 0 1 -1.03125,0.39258 172.73608,172.73608 0 0 1 -1.03515,0.38867 172.73608,172.73608 0 0 1 -1.03711,0.38086 172.73608,172.73608 0 0 1 -1.04102,0.375 172.73608,172.73608 0 0 1 -1.04102,0.36718 172.73608,172.73608 0 0 1 -1.04492,0.36133 172.73608,172.73608 0 0 1 -1.04687,0.35352 172.73608,172.73608 0 0 1 -1.04883,0.34765 172.73608,172.73608 0 0 1 -1.05078,0.3418 172.73608,172.73608 0 0 1 -1.05469,0.33399 172.73608,172.73608 0 0 1 -1.05469,0.32617 172.73608,172.73608 0 0 1 -1.05859,0.32226 172.73608,172.73608 0 0 1 -1.05859,0.3125 172.73608,172.73608 0 0 1 -1.0625,0.30664 172.73608,172.73608 0 0 1 -1.0625,0.30078 172.73608,172.73608 0 0 1 -1.06641,0.29493 172.73608,172.73608 0 0 1 -1.06641,0.28515 172.73608,172.73608 0 0 1 -1.07031,0.28125 172.73608,172.73608 0 0 1 -1.07031,0.27149 172.73608,172.73608 0 0 1 -1.07227,0.26757 172.73608,172.73608 0 0 1 -1.07422,0.25782 172.73608,172.73608 0 0 1 -1.07617,0.2539 172.73608,172.73608 0 0 1 -0.86523,0.19532 172.73608,172.73608 0 0 0 27.61719,2.22265 A 172.73608,172.73608 0 0 0 833.71289,584.14648 172.73608,172.73608 0 0 0 660.97852,411.41016 Z"
           transform="scale(0.26458333)" />
      </g>
    </g>
  </g>
</svg>
